<svg width="152" height="46" viewBox="0 0 152 46" fill="none" xmlns="http://www.w3.org/2000/svg">
<path d="M0.468567 29.9001V11.2349H6.07841V29.9001H0.468567Z" fill="#F3465F"/>
<path d="M9.08295 29.8997V19.1663C9.08295 17.6139 9.45456 16.207 10.1977 14.9457C10.9409 13.6844 11.9957 12.6777 13.3622 11.9258C14.7528 11.1738 16.3949 10.7979 18.2888 10.7979C20.2068 10.7979 21.837 11.1738 23.1795 11.9258C24.546 12.6777 25.5888 13.6844 26.308 14.9457C27.0272 16.207 27.3868 17.6139 27.3868 19.1663V29.8997H21.813V19.3118C21.813 18.6569 21.6572 18.0626 21.3455 17.529C21.0338 16.9711 20.6023 16.5344 20.0509 16.2191C19.5235 15.8795 18.9242 15.7098 18.2529 15.7098C17.5577 15.7098 16.9343 15.8795 16.3829 16.2191C15.8555 16.5344 15.436 16.9711 15.1243 17.529C14.8127 18.0626 14.6568 18.6569 14.6568 19.3118V29.8997H9.08295Z" fill="#F3465F"/>
<path d="M3.68451 44.2253C3.2205 44.2253 2.79052 44.1408 2.39457 43.9717C1.99862 43.7965 1.65216 43.5555 1.3552 43.2488C1.06442 42.942 0.8386 42.5852 0.677746 42.1783C0.51689 41.7715 0.436462 41.3364 0.436462 40.8732C0.436462 40.4037 0.51689 39.9655 0.677746 39.5587C0.8386 39.1518 1.06442 38.7981 1.3552 38.4977C1.65216 38.1909 1.99552 37.9531 2.38529 37.784C2.78124 37.6088 3.21122 37.5211 3.67523 37.5211C4.18254 37.5211 4.62799 37.6088 5.01157 37.784C5.39514 37.9593 5.73542 38.1972 6.03238 38.4977L5.42917 39.108C5.22501 38.8763 4.97445 38.6948 4.67748 38.5634C4.38671 38.4319 4.05262 38.3662 3.67523 38.3662C3.33495 38.3662 3.02253 38.4288 2.73793 38.554C2.45334 38.6729 2.20588 38.8451 1.99552 39.0704C1.78517 39.2958 1.62123 39.5618 1.50368 39.8685C1.39232 40.1753 1.33664 40.5101 1.33664 40.8732C1.33664 41.2363 1.39232 41.5711 1.50368 41.8779C1.62123 42.1846 1.78517 42.4506 1.99552 42.676C2.20588 42.9013 2.45334 43.0766 2.73793 43.2018C3.02253 43.3208 3.33495 43.3802 3.67523 43.3802C4.07737 43.3802 4.42692 43.3145 4.72388 43.183C5.02085 43.0453 5.27141 42.8607 5.47557 42.629L6.07878 43.23C5.78182 43.5429 5.43226 43.7871 5.03013 43.9624C4.63417 44.1376 4.18564 44.2253 3.68451 44.2253ZM8.87071 44.2253C8.43768 44.2253 8.04791 44.122 7.70141 43.9154C7.35497 43.7088 7.07964 43.4303 6.87548 43.0797C6.67132 42.7229 6.56924 42.3255 6.56924 41.8873C6.56924 41.4554 6.67132 41.0673 6.87548 40.723C7.07964 40.3724 7.35497 40.0939 7.70141 39.8873C8.04791 39.6807 8.43768 39.5774 8.87071 39.5774C9.2976 39.5774 9.68429 39.6807 10.0307 39.8873C10.3834 40.0876 10.6618 40.3631 10.8659 40.7136C11.0701 41.0641 11.1722 41.4554 11.1722 41.8873C11.1722 42.3255 11.0701 42.7229 10.8659 43.0797C10.6618 43.4303 10.3834 43.7088 10.0307 43.9154C9.68429 44.122 9.2976 44.2253 8.87071 44.2253ZM8.87071 43.4084C9.14911 43.4084 9.3966 43.3426 9.61312 43.2112C9.8297 43.0797 9.99981 42.9013 10.1235 42.676C10.2473 42.4444 10.3091 42.1815 10.3091 41.8873C10.3091 41.5993 10.2442 41.3427 10.1142 41.1173C9.99053 40.892 9.82042 40.7167 9.60384 40.5915C9.39353 40.4601 9.14911 40.3943 8.87071 40.3943C8.59231 40.3943 8.34487 40.4601 8.1283 40.5915C7.91178 40.7167 7.74167 40.892 7.61789 41.1173C7.49418 41.3427 7.43229 41.5993 7.43229 41.8873C7.43229 42.1815 7.49418 42.4444 7.61789 42.676C7.74167 42.9013 7.91178 43.0797 8.1283 43.2112C8.34487 43.3426 8.59231 43.4084 8.87071 43.4084ZM13.895 44.2253C13.53 44.2253 13.2022 44.1439 12.9113 43.9811C12.6268 43.8121 12.4041 43.5805 12.2432 43.2863C12.0823 42.9921 12.0019 42.6509 12.0019 42.2629V39.6713H12.8371V42.2253C12.8371 42.4694 12.8773 42.6823 12.9577 42.8638C13.0444 43.0391 13.1681 43.1736 13.3289 43.2675C13.4898 43.3614 13.6785 43.4084 13.895 43.4084C14.223 43.4084 14.4797 43.3051 14.6653 43.0985C14.8509 42.8857 14.9437 42.5946 14.9437 42.2253V39.6713H15.7789V42.2629C15.7789 42.6509 15.6985 42.9921 15.5376 43.2863C15.3768 43.5805 15.1541 43.8121 14.8694 43.9811C14.591 44.1439 14.2662 44.2253 13.895 44.2253ZM20.0164 44.1314V41.5305C20.0164 41.1924 19.9113 40.9139 19.7009 40.6948C19.4906 40.4757 19.2183 40.3662 18.8843 40.3662C18.6615 40.3662 18.4636 40.4162 18.2903 40.5164C18.1171 40.6166 17.981 40.7542 17.882 40.9295C17.7831 41.1048 17.7335 41.3051 17.7335 41.5305L17.3902 41.3333C17.3902 40.9953 17.4644 40.6948 17.6129 40.4319C17.7614 40.169 17.9687 39.9624 18.2347 39.8122C18.5007 39.6557 18.8007 39.5774 19.1348 39.5774C19.4689 39.5774 19.7628 39.662 20.0164 39.831C20.2763 40 20.4804 40.2222 20.6289 40.4976C20.7774 40.7668 20.8517 41.0547 20.8517 41.3615V44.1314H20.0164ZM16.8983 44.1314V39.6713H17.7335V44.1314H16.8983ZM22.6055 44.1314V37.8028H23.4408V44.1314H22.6055ZM21.5198 40.4413V39.6713H24.5265V40.4413H21.5198ZM25.3447 44.1314V37.4272H26.1799V44.1314H25.3447ZM29.4435 44.2253C29.0043 44.2253 28.6083 44.1251 28.2557 43.9248C27.903 43.7182 27.6246 43.4397 27.4205 43.0891C27.2163 42.7386 27.1142 42.3411 27.1142 41.8967C27.1142 41.4585 27.2132 41.0641 27.4112 40.7136C27.6154 40.3631 27.8876 40.0876 28.2278 39.8873C28.5743 39.6807 28.961 39.5774 29.3879 39.5774C29.7962 39.5774 30.155 39.6713 30.4644 39.8591C30.7799 40.0469 31.0242 40.3067 31.1975 40.6385C31.3769 40.9702 31.4666 41.3458 31.4666 41.7652C31.4666 41.8278 31.4635 41.8967 31.4573 41.9718C31.4511 42.0406 31.4388 42.122 31.4202 42.2159H27.6989V41.5117H30.9748L30.6685 41.784C30.6685 41.4835 30.6159 41.23 30.5108 41.0234C30.4056 40.8106 30.2571 40.6479 30.0653 40.5352C29.8735 40.4162 29.6415 40.3568 29.3693 40.3568C29.0847 40.3568 28.8341 40.4194 28.6176 40.5446C28.4011 40.6697 28.2341 40.845 28.1165 41.0704C27.9989 41.2957 27.9402 41.5617 27.9402 41.8685C27.9402 42.1815 28.0021 42.4569 28.1258 42.6948C28.2495 42.9264 28.4258 43.1079 28.6547 43.2394C28.8837 43.3645 29.1466 43.4272 29.4435 43.4272C29.691 43.4272 29.9168 43.3833 30.121 43.2957C30.3314 43.2081 30.5108 43.0766 30.6592 42.9013L31.1975 43.4553C30.9871 43.7057 30.7273 43.8966 30.418 44.0281C30.1148 44.1595 29.79 44.2253 29.4435 44.2253ZM33.7786 44.2253C33.5312 44.2253 33.296 44.194 33.0733 44.1314C32.8568 44.0625 32.6557 43.9686 32.4701 43.8497C32.2845 43.7245 32.1236 43.5774 31.9875 43.4084L32.5258 42.8638C32.6867 43.0641 32.8723 43.2143 33.0826 43.3145C33.2929 43.4084 33.528 43.4553 33.7879 43.4553C34.0477 43.4553 34.2488 43.4115 34.3911 43.3239C34.5334 43.23 34.6045 43.1016 34.6045 42.9389C34.6045 42.7762 34.5458 42.6509 34.4282 42.5633C34.3168 42.4694 34.1715 42.3943 33.992 42.338C33.8126 42.2754 33.6208 42.2159 33.4167 42.1596C33.2187 42.097 33.03 42.0187 32.8506 41.9248C32.6712 41.8309 32.5227 41.7026 32.4051 41.5399C32.2938 41.3771 32.2381 41.1612 32.2381 40.892C32.2381 40.6228 32.303 40.3912 32.433 40.1972C32.5629 39.9969 32.7423 39.8435 32.9712 39.7371C33.2063 39.6307 33.4878 39.5774 33.8157 39.5774C34.1622 39.5774 34.4684 39.6401 34.7344 39.7652C35.0067 39.8842 35.2294 40.0657 35.4026 40.3098L34.8644 40.8544C34.7406 40.6917 34.586 40.5665 34.4004 40.4788C34.221 40.3912 34.0168 40.3474 33.7879 40.3474C33.5466 40.3474 33.361 40.3912 33.2311 40.4788C33.1073 40.5602 33.0455 40.676 33.0455 40.8263C33.0455 40.9765 33.1011 41.0923 33.2125 41.1737C33.3239 41.2551 33.4693 41.3239 33.6487 41.3802C33.8343 41.4366 34.0261 41.496 34.224 41.5586C34.422 41.615 34.6107 41.6932 34.7901 41.7934C34.9696 41.8936 35.1149 42.0281 35.2263 42.1971C35.3439 42.3661 35.4026 42.5884 35.4026 42.8638C35.4026 43.2832 35.2541 43.6149 34.9572 43.8591C34.6664 44.1032 34.2736 44.2253 33.7786 44.2253ZM37.739 44.2253C37.4915 44.2253 37.2564 44.194 37.0337 44.1314C36.8171 44.0625 36.6161 43.9686 36.4305 43.8497C36.2449 43.7245 36.084 43.5774 35.9479 43.4084L36.4862 42.8638C36.647 43.0641 36.8326 43.2143 37.043 43.3145C37.2533 43.4084 37.4884 43.4553 37.7483 43.4553C38.0081 43.4553 38.2092 43.4115 38.3515 43.3239C38.4938 43.23 38.5649 43.1016 38.5649 42.9389C38.5649 42.7762 38.5061 42.6509 38.3886 42.5633C38.2772 42.4694 38.1318 42.3943 37.9524 42.338C37.773 42.2754 37.5812 42.2159 37.3771 42.1596C37.1791 42.097 36.9904 42.0187 36.811 41.9248C36.6315 41.8309 36.483 41.7026 36.3655 41.5399C36.2542 41.3771 36.1985 41.1612 36.1985 40.892C36.1985 40.6228 36.2635 40.3912 36.3934 40.1972C36.5233 39.9969 36.7027 39.8435 36.9316 39.7371C37.1667 39.6307 37.4482 39.5774 37.7761 39.5774C38.1226 39.5774 38.4288 39.6401 38.6948 39.7652C38.967 39.8842 39.1898 40.0657 39.363 40.3098L38.8248 40.8544C38.701 40.6917 38.5464 40.5665 38.3608 40.4788C38.1813 40.3912 37.9771 40.3474 37.7483 40.3474C37.507 40.3474 37.3214 40.3912 37.1915 40.4788C37.0677 40.5602 37.0059 40.676 37.0059 40.8263C37.0059 40.9765 37.0615 41.0923 37.1729 41.1737C37.2843 41.2551 37.4296 41.3239 37.6091 41.3802C37.7947 41.4366 37.9864 41.496 38.1844 41.5586C38.3824 41.615 38.5711 41.6932 38.7505 41.7934C38.9299 41.8936 39.0753 42.0281 39.1867 42.1971C39.3042 42.3661 39.363 42.5884 39.363 42.8638C39.363 43.2832 39.2145 43.6149 38.9176 43.8591C38.6268 44.1032 38.2339 44.2253 37.739 44.2253ZM42.9615 41.5962V40.8263H44.7155C44.9567 40.8263 45.1702 40.7762 45.3558 40.676C45.5476 40.5758 45.6961 40.435 45.8012 40.2535C45.9126 40.072 45.9683 39.856 45.9683 39.6056C45.9683 39.3552 45.9126 39.1392 45.8012 38.9577C45.6961 38.7762 45.5476 38.6354 45.3558 38.5352C45.1702 38.435 44.9567 38.385 44.7155 38.385H42.9615V37.615H44.7711C45.1671 37.615 45.5197 37.6964 45.8291 37.8592C46.1446 38.0219 46.3921 38.2535 46.5715 38.554C46.7571 38.8482 46.8499 39.1988 46.8499 39.6056C46.8499 40.0063 46.7571 40.3568 46.5715 40.6572C46.3921 40.9514 46.1446 41.1831 45.8291 41.3521C45.5197 41.5148 45.1671 41.5962 44.7711 41.5962H42.9615ZM42.3769 44.1314V37.615H43.2492V44.1314H42.3769ZM49.4771 44.2253C49.075 44.2253 48.71 44.1251 48.382 43.9248C48.0542 43.7182 47.7943 43.4397 47.6025 43.0891C47.4169 42.7386 47.3241 42.3442 47.3241 41.9061C47.3241 41.4679 47.4169 41.0735 47.6025 40.723C47.7943 40.3724 48.0511 40.0939 48.3727 39.8873C48.7007 39.6807 49.0688 39.5774 49.4771 39.5774C49.8112 39.5774 50.1081 39.6495 50.368 39.7934C50.634 39.9311 50.8475 40.1252 51.0083 40.3756C51.1692 40.6197 51.2589 40.9045 51.2774 41.23V42.5727C51.2589 42.892 51.1692 43.1768 51.0083 43.4272C50.8537 43.6776 50.6433 43.8747 50.3773 44.0187C50.1174 44.1564 49.8174 44.2253 49.4771 44.2253ZM49.6163 43.4272C50.0308 43.4272 50.3649 43.2863 50.6185 43.0046C50.8722 42.7167 50.999 42.3505 50.999 41.9061C50.999 41.5993 50.9403 41.3333 50.8227 41.1079C50.7113 40.8763 50.5505 40.6979 50.3401 40.5727C50.1298 40.4413 49.8854 40.3756 49.607 40.3756C49.3286 40.3756 49.0812 40.4413 48.8646 40.5727C48.6543 40.7042 48.4872 40.8857 48.3635 41.1173C48.246 41.3427 48.1871 41.6025 48.1871 41.8967C48.1871 42.1971 48.246 42.4631 48.3635 42.6948C48.4872 42.9201 48.6574 43.0985 48.8739 43.23C49.0905 43.3614 49.3379 43.4272 49.6163 43.4272ZM50.9433 44.1314V42.9295L51.1011 41.8403L50.9433 40.7605V39.6713H51.7878V44.1314H50.9433ZM53.0038 44.1314V39.6713H53.839V44.1314H53.0038ZM53.839 41.5868L53.5235 41.446C53.5235 40.8763 53.6534 40.4225 53.9133 40.0845C54.1731 39.7465 54.5475 39.5774 55.0362 39.5774C55.2589 39.5774 55.46 39.6181 55.6394 39.6995C55.8188 39.7746 55.9859 39.903 56.1405 40.0845L55.593 40.6572C55.5002 40.5571 55.3981 40.4851 55.2867 40.4413C55.1754 40.3974 55.0455 40.3756 54.897 40.3756C54.5877 40.3756 54.334 40.4757 54.136 40.676C53.938 40.8763 53.839 41.1799 53.839 41.5868ZM57.397 44.1314V37.8028H58.232V44.1314H57.397ZM56.3112 40.4413V39.6713H59.3177V40.4413H56.3112ZM61.4469 44.2253C61.1993 44.2253 60.9644 44.194 60.7417 44.1314C60.5247 44.0625 60.3241 43.9686 60.1384 43.8497C59.9528 43.7245 59.7916 43.5774 59.6559 43.4084L60.1941 42.8638C60.3548 43.0641 60.5404 43.2143 60.7509 43.3145C60.9609 43.4084 61.1964 43.4553 61.4562 43.4553C61.7161 43.4553 61.9168 43.4115 62.0594 43.3239C62.2015 43.23 62.2729 43.1016 62.2729 42.9389C62.2729 42.7762 62.2137 42.6509 62.0966 42.5633C61.9852 42.4694 61.8396 42.3943 61.6604 42.338C61.4806 42.2754 61.2892 42.2159 61.085 42.1596C60.8867 42.097 60.6982 42.0187 60.5189 41.9248C60.3391 41.8309 60.1906 41.7026 60.0735 41.5399C59.9621 41.3771 59.9064 41.1612 59.9064 40.892C59.9064 40.6228 59.9714 40.3912 60.1013 40.1972C60.2313 39.9969 60.4105 39.8435 60.6396 39.7371C60.8745 39.6307 61.1558 39.5774 61.4841 39.5774C61.8303 39.5774 62.1366 39.6401 62.4028 39.7652C62.6748 39.8842 62.8975 40.0657 63.071 40.3098L62.5327 40.8544C62.4086 40.6917 62.2543 40.5665 62.0687 40.4788C61.8889 40.3912 61.6847 40.3474 61.4562 40.3474C61.2149 40.3474 61.0293 40.3912 60.8994 40.4788C60.7753 40.5602 60.7138 40.676 60.7138 40.8263C60.7138 40.9765 60.7695 41.0923 60.8809 41.1737C60.9922 41.2551 61.1372 41.3239 61.317 41.3802C61.5026 41.4366 61.694 41.496 61.8924 41.5586C62.0902 41.615 62.2787 41.6932 62.4585 41.7934C62.6377 41.8936 62.7833 42.0281 62.8946 42.1971C63.0118 42.3661 63.071 42.5884 63.071 42.8638C63.071 43.2832 62.9225 43.6149 62.6255 43.8591C62.3344 44.1032 61.9417 44.2253 61.4469 44.2253ZM64.0523 45.1642L64.6277 44.0469L64.9247 43.9717C64.8939 44.0406 64.8533 44.0969 64.804 44.1408C64.7605 44.1846 64.7049 44.2065 64.637 44.2065C64.5071 44.2065 64.3864 44.1533 64.2751 44.0469C64.1701 43.9342 64.1173 43.7965 64.1173 43.6337C64.1173 43.4522 64.1759 43.302 64.2936 43.183C64.4114 43.0579 64.5598 42.9952 64.7391 42.9952C64.8997 42.9952 65.0424 43.0579 65.166 43.183C65.2895 43.302 65.3516 43.4522 65.3516 43.6337C65.3516 43.7026 65.3359 43.7871 65.3052 43.8872C65.2802 43.9811 65.228 44.1032 65.1474 44.2534L64.5349 45.4271L64.0523 45.1642ZM68.6402 44.1314V37.615H69.5125V44.1314H68.6402ZM72.7977 44.1314V37.615H73.67V44.1314H72.7977ZM69.2341 41.1643V40.3568H73.0111V41.1643H69.2341ZM76.9187 44.2253C76.5167 44.2253 76.1513 44.1251 75.8236 43.9248C75.4959 43.7182 75.2361 43.4397 75.0441 43.0891C74.8585 42.7386 74.7657 42.3442 74.7657 41.9061C74.7657 41.4679 74.8585 41.0735 75.0441 40.723C75.2361 40.3724 75.4924 40.0939 75.8143 39.8873C76.142 39.6807 76.5103 39.5774 76.9187 39.5774C77.2527 39.5774 77.5497 39.6495 77.8096 39.7934C78.0758 39.9311 78.2892 40.1252 78.4499 40.3756C78.6105 40.6197 78.7005 40.9045 78.719 41.23V42.5727C78.7005 42.892 78.6105 43.1768 78.4499 43.4272C78.295 43.6776 78.0851 43.8747 77.8188 44.0187C77.559 44.1564 77.2591 44.2253 76.9187 44.2253ZM77.0579 43.4272C77.4726 43.4272 77.8067 43.2863 78.0601 43.0046C78.3136 42.7167 78.4406 42.3505 78.4406 41.9061C78.4406 41.5993 78.382 41.3333 78.2643 41.1079C78.1529 40.8763 77.9923 40.6979 77.7817 40.5727C77.5712 40.4413 77.327 40.3756 77.0486 40.3756C76.7702 40.3756 76.5225 40.4413 76.3062 40.5727C76.0956 40.7042 75.9286 40.8857 75.805 41.1173C75.6873 41.3427 75.6287 41.6025 75.6287 41.8967C75.6287 42.1971 75.6873 42.4631 75.805 42.6948C75.9286 42.9201 76.0991 43.0985 76.3155 43.23C76.5318 43.3614 76.7795 43.4272 77.0579 43.4272ZM78.3849 44.1314V42.9295L78.5427 41.8403L78.3849 40.7605V39.6713H79.2294V44.1314H78.3849ZM82.7657 44.2253C82.4316 44.2253 82.1283 44.1564 81.8563 44.0187C81.59 43.8747 81.3766 43.6776 81.2159 43.4272C81.0547 43.1768 80.9654 42.892 80.9468 42.5727V41.23C80.9654 40.9045 81.0547 40.6197 81.2159 40.3756C81.383 40.1252 81.5993 39.9311 81.8656 39.7934C82.1376 39.6495 82.4374 39.5774 82.7657 39.5774C83.1677 39.5774 83.5296 39.6807 83.8515 39.8873C84.1792 40.0939 84.4362 40.3724 84.6218 40.723C84.8074 41.0735 84.9002 41.4679 84.9002 41.9061C84.9002 42.3442 84.8074 42.7386 84.6218 43.0891C84.4362 43.4397 84.1792 43.7182 83.8515 43.9248C83.5296 44.1251 83.1677 44.2253 82.7657 44.2253ZM82.6265 43.4272C82.9049 43.4272 83.1491 43.3614 83.3596 43.23C83.5696 43.0985 83.7367 42.9201 83.8608 42.6948C83.9843 42.4631 84.0464 42.1971 84.0464 41.8967C84.0464 41.6025 83.9843 41.3396 83.8608 41.1079C83.7367 40.8763 83.5696 40.6979 83.3596 40.5727C83.1491 40.4413 82.9078 40.3756 82.6358 40.3756C82.3574 40.3756 82.1126 40.4413 81.9027 40.5727C81.6921 40.6979 81.528 40.8763 81.4108 41.1079C81.2931 41.3396 81.2345 41.6056 81.2345 41.9061C81.2345 42.2002 81.2902 42.4631 81.4016 42.6948C81.5187 42.9201 81.6828 43.0985 81.8934 43.23C82.1097 43.3614 82.3539 43.4272 82.6265 43.4272ZM80.4457 45.9999V39.6713H81.2809V40.845L81.1231 41.9248L81.2809 43.014V45.9999H80.4457ZM88.1668 44.2253C87.8327 44.2253 87.5293 44.1564 87.2573 44.0187C86.9911 43.8747 86.7776 43.6776 86.617 43.4272C86.4563 43.1768 86.3664 42.892 86.3479 42.5727V41.23C86.3664 40.9045 86.4563 40.6197 86.617 40.3756C86.784 40.1252 87.0004 39.9311 87.2666 39.7934C87.5386 39.6495 87.8391 39.5774 88.1668 39.5774C88.5687 39.5774 88.9306 39.6807 89.2525 39.8873C89.5802 40.0939 89.8372 40.3724 90.0228 40.723C90.2084 41.0735 90.3012 41.4679 90.3012 41.9061C90.3012 42.3442 90.2084 42.7386 90.0228 43.0891C89.8372 43.4397 89.5802 43.7182 89.2525 43.9248C88.9306 44.1251 88.5687 44.2253 88.1668 44.2253ZM88.0276 43.4272C88.306 43.4272 88.5502 43.3614 88.7607 43.23C88.9712 43.0985 89.1383 42.9201 89.2618 42.6948C89.3854 42.4631 89.4474 42.1971 89.4474 41.8967C89.4474 41.6025 89.3854 41.3396 89.2618 41.1079C89.1383 40.8763 88.9712 40.6979 88.7607 40.5727C88.5502 40.4413 88.3089 40.3756 88.0368 40.3756C87.7584 40.3756 87.5143 40.4413 87.3037 40.5727C87.0932 40.6979 86.9296 40.8763 86.8119 41.1079C86.6941 41.3396 86.6355 41.6056 86.6355 41.9061C86.6355 42.2002 86.6912 42.4631 86.8026 42.6948C86.9203 42.9201 87.0839 43.0985 87.2944 43.23C87.5108 43.3614 87.7555 43.4272 88.0276 43.4272ZM85.8467 45.9999V39.6713H86.6819V40.845L86.5242 41.9248L86.6819 43.014V45.9999H85.8467ZM92.5325 44.1689L90.6208 39.6713H91.5488L92.9687 43.1924H92.6717L94.1658 39.6713H95.0938L93.0336 44.1689H92.5325ZM91.2704 45.9999L92.5696 43.3051L93.0336 44.1689L92.1984 45.9999H91.2704ZM97.9306 44.1314V37.615H98.803V44.1314H97.9306ZM102.088 44.1314V37.615H102.96V44.1314H102.088ZM98.5246 41.1643V40.3568H102.302V41.1643H98.5246ZM106.376 44.2253C105.937 44.2253 105.541 44.1251 105.188 43.9248C104.836 43.7182 104.557 43.4397 104.353 43.0891C104.149 42.7386 104.047 42.3411 104.047 41.8967C104.047 41.4585 104.146 41.0641 104.344 40.7136C104.548 40.3631 104.82 40.0876 105.16 39.8873C105.507 39.6807 105.894 39.5774 106.32 39.5774C106.729 39.5774 107.088 39.6713 107.397 39.8591C107.712 40.0469 107.957 40.3067 108.13 40.6385C108.309 40.9702 108.399 41.3458 108.399 41.7652C108.399 41.8278 108.396 41.8967 108.39 41.9718C108.384 42.0406 108.371 42.122 108.353 42.2159H104.631V41.5117H107.907L107.601 41.784C107.601 41.4835 107.548 41.23 107.443 41.0234C107.338 40.8106 107.19 40.6479 106.998 40.5352C106.806 40.4162 106.574 40.3568 106.302 40.3568C106.017 40.3568 105.767 40.4194 105.55 40.5446C105.334 40.6697 105.167 40.845 105.049 41.0704C104.931 41.2957 104.873 41.5617 104.873 41.8685C104.873 42.1815 104.935 42.4569 105.058 42.6948C105.182 42.9264 105.358 43.1079 105.587 43.2394C105.816 43.3645 106.079 43.4272 106.376 43.4272C106.624 43.4272 106.849 43.3833 107.054 43.2957C107.264 43.2081 107.443 43.0766 107.592 42.9013L108.13 43.4553C107.92 43.7057 107.66 43.8966 107.351 44.0281C107.047 44.1595 106.722 44.2253 106.376 44.2253ZM111.184 44.2253C110.782 44.2253 110.418 44.1251 110.089 43.9248C109.762 43.7182 109.502 43.4397 109.31 43.0891C109.124 42.7386 109.031 42.3442 109.031 41.9061C109.031 41.4679 109.124 41.0735 109.31 40.723C109.502 40.3724 109.759 40.0939 110.08 39.8873C110.408 39.6807 110.776 39.5774 111.184 39.5774C111.518 39.5774 111.815 39.6495 112.075 39.7934C112.342 39.9311 112.555 40.1252 112.716 40.3756C112.877 40.6197 112.966 40.9045 112.985 41.23V42.5727C112.966 42.892 112.877 43.1768 112.716 43.4272C112.561 43.6776 112.351 43.8747 112.085 44.0187C111.825 44.1564 111.525 44.2253 111.184 44.2253ZM111.324 43.4272C111.738 43.4272 112.072 43.2863 112.326 43.0046C112.58 42.7167 112.706 42.3505 112.706 41.9061C112.706 41.5993 112.648 41.3333 112.53 41.1079C112.419 40.8763 112.258 40.6979 112.047 40.5727C111.837 40.4413 111.593 40.3756 111.314 40.3756C111.036 40.3756 110.789 40.4413 110.572 40.5727C110.362 40.7042 110.195 40.8857 110.071 41.1173C109.954 41.3427 109.894 41.6025 109.894 41.8967C109.894 42.1971 109.954 42.4631 110.071 42.6948C110.195 42.9201 110.365 43.0985 110.581 43.23C110.798 43.3614 111.045 43.4272 111.324 43.4272ZM112.651 44.1314V42.9295L112.808 41.8403L112.651 40.7605V39.6713H113.495V44.1314H112.651ZM114.711 44.1314V39.6713H115.547V44.1314H114.711ZM115.547 41.5868L115.231 41.446C115.231 40.8763 115.361 40.4225 115.621 40.0845C115.881 39.7465 116.255 39.5774 116.744 39.5774C116.966 39.5774 117.167 39.6181 117.347 39.6995C117.526 39.7746 117.693 39.903 117.848 40.0845L117.301 40.6572C117.208 40.5571 117.106 40.4851 116.994 40.4413C116.883 40.3974 116.753 40.3756 116.605 40.3756C116.295 40.3756 116.041 40.4757 115.844 40.676C115.645 40.8763 115.547 41.1799 115.547 41.5868ZM119.104 44.1314V37.8028H119.94V44.1314H119.104ZM118.019 40.4413V39.6713H121.025V40.4413H118.019ZM123.154 44.2253C122.907 44.2253 122.671 44.194 122.449 44.1314C122.232 44.0625 122.031 43.9686 121.846 43.8497C121.66 43.7245 121.499 43.5774 121.363 43.4084L121.901 42.8638C122.062 43.0641 122.248 43.2143 122.458 43.3145C122.669 43.4084 122.903 43.4553 123.163 43.4553C123.423 43.4553 123.624 43.4115 123.767 43.3239C123.909 43.23 123.98 43.1016 123.98 42.9389C123.98 42.7762 123.921 42.6509 123.804 42.5633C123.692 42.4694 123.547 42.3943 123.367 42.338C123.188 42.2754 122.996 42.2159 122.792 42.1596C122.594 42.097 122.406 42.0187 122.226 41.9248C122.047 41.8309 121.898 41.7026 121.781 41.5399C121.669 41.3771 121.614 41.1612 121.614 40.892C121.614 40.6228 121.678 40.3912 121.808 40.1972C121.938 39.9969 122.118 39.8435 122.347 39.7371C122.582 39.6307 122.863 39.5774 123.191 39.5774C123.538 39.5774 123.844 39.6401 124.11 39.7652C124.382 39.8842 124.605 40.0657 124.778 40.3098L124.24 40.8544C124.116 40.6917 123.961 40.5665 123.776 40.4788C123.597 40.3912 123.392 40.3474 123.163 40.3474C122.922 40.3474 122.736 40.3912 122.606 40.4788C122.483 40.5602 122.421 40.676 122.421 40.8263C122.421 40.9765 122.477 41.0923 122.588 41.1737C122.699 41.2551 122.845 41.3239 123.024 41.3802C123.21 41.4366 123.402 41.496 123.599 41.5586C123.798 41.615 123.986 41.6932 124.166 41.7934C124.345 41.8936 124.49 42.0281 124.602 42.1971C124.719 42.3661 124.778 42.5884 124.778 42.8638C124.778 43.2832 124.63 43.6149 124.333 43.8591C124.042 44.1032 123.649 44.2253 123.154 44.2253ZM125.964 42.0657L125.844 37.4272H126.734L126.614 42.0657H125.964ZM126.28 44.2253C126.106 44.2253 125.964 44.1658 125.853 44.0469C125.741 43.9279 125.686 43.7808 125.686 43.6056C125.686 43.4303 125.741 43.2863 125.853 43.1736C125.964 43.0547 126.106 42.9952 126.28 42.9952C126.459 42.9952 126.604 43.0547 126.716 43.1736C126.827 43.2863 126.883 43.4303 126.883 43.6056C126.883 43.7808 126.827 43.9279 126.716 44.0469C126.604 44.1658 126.459 44.2253 126.28 44.2253Z" fill="#747474"/>
<path d="M52.9106 29.9001V11.2349H58.5204V29.9001H52.9106Z" fill="#F3465F"/>
<path fill-rule="evenodd" clip-rule="evenodd" d="M35.9143 29.6079C37.1609 30.0931 38.5514 30.3356 40.0857 30.3356C42.0995 30.3356 43.8376 29.9232 45.3 29.0986C46.7863 28.2739 47.9371 27.0974 48.7522 25.5693C49.5673 24.0411 49.9749 22.2583 49.9749 20.2208V3.33838H44.401V13.2713H44.2931C43.9335 12.7619 43.478 12.3253 42.9266 11.9615C42.3992 11.5734 41.7998 11.2823 41.1286 11.0883C40.4813 10.8942 39.786 10.7972 39.0429 10.7972C37.3168 10.7972 35.7824 11.1974 34.4399 11.9979C33.1213 12.7983 32.0785 13.902 31.3114 15.3089C30.5681 16.7157 30.1966 18.3651 30.1966 20.2571C30.1966 21.7125 30.4243 23.0587 30.8798 24.2958C31.3353 25.5329 31.9826 26.6123 32.8217 27.534C33.6608 28.4315 34.6917 29.1228 35.9143 29.6079ZM44.0826 20.3639C44.0826 22.7947 42.135 24.7653 39.7325 24.7653C37.3301 24.7653 35.3825 22.7947 35.3825 20.3639C35.3825 17.9331 37.3301 15.9626 39.7325 15.9626C42.135 15.9626 44.0826 17.9331 44.0826 20.3639Z" fill="#F3465F"/>
<path d="M61.6566 29.7848V25.3096H70.5388C70.7784 25.3096 70.9942 25.261 71.1861 25.164C71.3781 25.0427 71.5336 24.8851 71.6536 24.691C71.7737 24.497 71.8334 24.2908 71.8334 24.0725C71.8334 23.8299 71.7737 23.6116 71.6536 23.4176C71.5336 23.2235 71.3781 23.078 71.1861 22.981C70.9942 22.8597 70.7784 22.799 70.5388 22.799H67.3024C66.1035 22.799 65.0131 22.605 64.03 22.2169C63.0712 21.8045 62.3039 21.1739 61.7285 20.3249C61.1769 19.4517 60.9014 18.3237 60.9014 16.9411C60.9014 15.8738 61.1532 14.9036 61.6566 14.0304C62.1838 13.1572 62.8914 12.4537 63.7783 11.9201C64.6895 11.3865 65.6842 11.1196 66.763 11.1196H75.6452V15.6313H67.626C67.2902 15.6313 67.0025 15.7405 66.763 15.9588C66.5472 16.1771 66.4393 16.4439 66.4393 16.7592C66.4393 17.0988 66.5472 17.3899 66.763 17.6324C67.0025 17.8507 67.2902 17.9599 67.626 17.9599H70.7906C72.1333 17.9599 73.284 18.1661 74.2428 18.5784C75.2259 18.9665 75.9811 19.5972 76.5083 20.4704C77.0599 21.3437 77.3354 22.4716 77.3354 23.8542C77.3354 24.9457 77.0599 25.9402 76.5083 26.8377C75.9811 27.7352 75.2619 28.4508 74.3507 28.9844C73.4638 29.518 72.4569 29.7848 71.33 29.7848H61.6566Z" fill="#291C61"/>
<path d="M121.979 30.1104V16.7085C121.979 14.9809 122.458 13.6234 123.417 12.6361C124.376 11.6489 125.707 11.1553 127.409 11.1553H132.767V15.82H128.775C128.44 15.82 128.152 15.9434 127.912 16.1902C127.673 16.4124 127.553 16.7085 127.553 17.0787V30.1104H121.979Z" fill="#291C61"/>
<path d="M143.816 29.783C141.731 29.783 139.897 29.3949 138.314 28.6187C136.732 27.8182 135.497 26.7267 134.61 25.3441C133.747 23.9372 133.316 22.312 133.316 20.4686C133.316 18.431 133.735 16.6846 134.574 15.2292C135.413 13.7738 136.528 12.6581 137.919 11.8818C139.333 11.0814 140.891 10.6812 142.594 10.6812C144.535 10.6812 146.154 11.0935 147.448 11.9182C148.767 12.7429 149.761 13.8708 150.433 15.302C151.104 16.7088 151.44 18.3219 151.44 20.1411C151.44 20.4564 151.416 20.8324 151.368 21.269C151.344 21.6814 151.308 22.0089 151.26 22.2514H139.177C139.321 22.8821 139.597 23.4157 140.004 23.8523C140.412 24.2889 140.927 24.6164 141.551 24.8347C142.174 25.0288 142.869 25.1258 143.636 25.1258H149.282V29.783H143.816ZM139.034 18.7221H146.046C145.998 18.334 145.926 17.958 145.83 17.5942C145.734 17.2303 145.578 16.915 145.363 16.6482C145.171 16.3571 144.943 16.1146 144.679 15.9205C144.415 15.7022 144.104 15.5324 143.744 15.4111C143.409 15.2898 143.025 15.2292 142.594 15.2292C142.042 15.2292 141.551 15.3262 141.119 15.5203C140.688 15.7144 140.328 15.9811 140.04 16.3207C139.753 16.6361 139.525 17.012 139.357 17.4487C139.213 17.861 139.105 18.2855 139.034 18.7221Z" fill="#291C61"/>
<path fill-rule="evenodd" clip-rule="evenodd" d="M92.9125 11.4452C91.7136 10.9358 90.3355 10.6812 88.777 10.6812C86.787 10.6812 85.0493 11.1056 83.5627 11.9546C82.0762 12.7793 80.9254 13.9436 80.1105 15.4475C79.2956 16.9514 78.8879 18.7343 78.8879 20.796V29.2372V36.5047H84.4618V27.7454H84.5696C84.9292 28.2791 85.373 28.7278 85.9002 29.0917C86.4518 29.4555 87.0509 29.7344 87.6982 29.9285C88.3693 30.1226 89.0769 30.2196 89.8199 30.2196C91.5698 30.2196 93.1045 29.8194 94.4228 29.0189C95.7412 28.2184 96.7724 27.1148 97.5154 25.7079C98.2828 24.2768 98.6662 22.6395 98.6662 20.796C98.6662 19.3164 98.4382 17.9702 97.9829 16.7574C97.5276 15.5203 96.8681 14.453 96.0051 13.5555C95.1658 12.6338 94.1351 11.9304 92.9125 11.4452ZM93.3828 20.3641C93.3828 22.7949 91.4353 24.7654 89.0328 24.7654C86.6303 24.7654 84.6827 22.7949 84.6827 20.3641C84.6827 17.9333 86.6303 15.9628 89.0328 15.9628C91.4353 15.9628 93.3828 17.9333 93.3828 20.3641Z" fill="#291C61"/>
<path fill-rule="evenodd" clip-rule="evenodd" d="M53.4172 8.14081C54.0645 8.79573 54.8316 9.12319 55.7187 9.12319C56.6057 9.12319 57.3729 8.79573 58.0201 8.14081C58.6674 7.48589 58.991 6.70969 58.991 5.81221C58.991 4.91472 58.6674 4.13853 58.0201 3.48361C57.3729 2.80443 56.6057 2.46484 55.7187 2.46484C54.8316 2.46484 54.0645 2.80443 53.4172 3.48361C52.7699 4.13853 52.4463 4.91472 52.4463 5.81221C52.4463 6.70969 52.7699 7.48589 53.4172 8.14081ZM55.6865 4.69527C56.0068 4.69527 56.2665 4.43253 56.2665 4.10842C56.2665 3.78432 56.0068 3.52158 55.6865 3.52158C55.3661 3.52158 55.1065 3.78432 55.1065 4.10842C55.1065 4.43253 55.3661 4.69527 55.6865 4.69527ZM56.6141 5.86816C56.6141 6.35432 56.2246 6.74843 55.7441 6.74843C55.2636 6.74843 54.8741 6.35432 54.8741 5.86816C54.8741 5.382 55.2636 4.98789 55.7441 4.98789C56.2246 4.98789 56.6141 5.382 56.6141 5.86816ZM58.0067 5.86737C58.0067 6.19147 57.7471 6.45421 57.4267 6.45421C57.1064 6.45421 56.8467 6.19147 56.8467 5.86737C56.8467 5.54326 57.1064 5.28052 57.4267 5.28052C57.7471 5.28052 58.0067 5.54326 58.0067 5.86737ZM55.6865 8.21736C56.0068 8.21736 56.2665 7.95462 56.2665 7.63051C56.2665 7.3064 56.0068 7.04366 55.6865 7.04366C55.3661 7.04366 55.1065 7.3064 55.1065 7.63051C55.1065 7.95462 55.3661 8.21736 55.6865 8.21736ZM54.5262 5.86737C54.5262 6.19147 54.2665 6.45421 53.9462 6.45421C53.6259 6.45421 53.3662 6.19147 53.3662 5.86737C53.3662 5.54326 53.6259 5.28052 53.9462 5.28052C54.2665 5.28052 54.5262 5.54326 54.5262 5.86737Z" fill="#F3465F"/>
<path fill-rule="evenodd" clip-rule="evenodd" d="M0.970934 8.14081C1.61822 8.79573 2.38538 9.12319 3.27241 9.12319C4.15943 9.12319 4.92659 8.79573 5.57388 8.14081C6.22117 7.48589 6.54481 6.70969 6.54481 5.81221C6.54481 4.91472 6.22117 4.13853 5.57388 3.48361C4.92659 2.80443 4.15943 2.46484 3.27241 2.46484C2.38538 2.46484 1.61822 2.80443 0.970934 3.48361C0.323645 4.13853 0 4.91472 0 5.81221C0 6.70969 0.323645 7.48589 0.970934 8.14081ZM4.08118 5.11593C4.47452 5.53933 4.45409 6.20759 4.03565 6.60557C3.61715 7.00358 2.95672 6.9829 2.56336 6.55952C2.17001 6.13613 2.19042 5.46787 2.6089 5.06988C3.02737 4.67187 3.68783 4.69253 4.08118 5.11593ZM1.64513 7.22616L1.86095 7.45845L2.58447 7.13494C2.68486 7.19331 2.79077 7.23892 2.89978 7.27158L3.11008 8.02837L3.42502 8.0382L3.7149 7.28036C3.81965 7.25134 3.92197 7.21043 4.01972 7.15757L4.70653 7.54752L4.93613 7.32913L4.60799 6.57797C4.66091 6.48371 4.70294 6.38476 4.73408 6.28302L5.49937 6.06536L5.50911 5.74668L4.75058 5.44966C4.72344 5.34675 4.68534 5.24613 4.6361 5.14975L5.02413 4.45005L4.80832 4.21773L4.0715 4.54721C3.97595 4.4905 3.87528 4.44548 3.77159 4.41222L3.55922 3.64784L3.24425 3.638L2.95754 4.38767C2.8473 4.41586 2.73961 4.45703 2.63678 4.51139L1.96275 4.12871L1.73317 4.34703L2.05041 5.07334C1.9894 5.17742 1.94181 5.28745 1.90777 5.40098L1.1699 5.61087L1.16018 5.9295L1.89137 6.21582C1.92076 6.33056 1.96388 6.44245 2.02072 6.54896L1.64513 7.22616Z" fill="#F3465F"/>
<path fill-rule="evenodd" clip-rule="evenodd" d="M103.956 29.265C105.202 30.114 106.641 30.5385 108.271 30.5385C109.302 30.5385 110.189 30.393 110.932 30.1019C111.699 29.8108 112.347 29.4106 112.874 28.9012C113.401 28.3675 113.833 27.7733 114.168 27.1184H114.312V30.1019H119.778V20.8239C119.778 18.9803 119.383 17.3188 118.592 15.8392C117.824 14.3353 116.709 13.1588 115.247 12.3099C113.809 11.4367 112.059 11 109.997 11C107.959 11 106.185 11.4367 104.675 12.3099C103.188 13.1831 102.038 14.3717 101.223 15.8756C100.408 17.3552 100 19.041 100 20.933C100 22.7522 100.347 24.3895 101.043 25.8449C101.738 27.276 102.709 28.4161 103.956 29.265ZM115.165 20.6585C115.23 20.6632 115.293 20.6679 115.357 20.6737C115.435 20.8455 115.47 21.0215 115.357 21.2146C115.247 21.4012 115.077 21.5582 114.86 21.5904C114.497 21.6444 114.142 21.5227 113.787 21.4013C113.515 21.3079 113.242 21.2146 112.967 21.2013C113.194 21.4909 113.318 21.8482 113.441 22.2017C113.484 22.3281 113.528 22.454 113.576 22.5762C113.69 22.8668 113.852 23.1955 114.151 23.3293C114.278 23.3862 114.482 23.4545 114.568 23.3307L114.572 23.3326C114.58 23.3368 114.589 23.341 114.597 23.3449L114.627 23.3651C114.673 23.3972 114.72 23.4294 114.766 23.4622C114.748 23.65 114.692 23.8205 114.498 23.9303C114.312 24.0363 114.086 24.086 113.882 24.0043C113.541 23.8674 113.294 23.5825 113.047 23.2979C112.857 23.0791 112.667 22.8606 112.435 22.7097C112.489 23.0762 112.42 23.4489 112.351 23.8176L112.351 23.8176C112.326 23.9485 112.302 24.0789 112.283 24.2084C112.239 24.518 112.217 24.8847 112.409 25.1517C112.491 25.2653 112.634 25.4275 112.77 25.3639L112.771 25.3651L112.771 25.3652C112.776 25.3738 112.782 25.3826 112.788 25.391C112.818 25.4532 112.848 25.5154 112.877 25.5781C112.768 25.7316 112.635 25.8508 112.413 25.8478C112.199 25.845 111.979 25.774 111.843 25.6003C111.615 25.3092 111.542 24.9371 111.468 24.5656C111.412 24.2802 111.356 23.995 111.229 23.7472C111.095 24.0912 110.851 24.3782 110.61 24.6621L110.61 24.6621C110.524 24.7637 110.438 24.8649 110.357 24.9682C110.166 25.2138 109.966 25.5203 110 25.8488C110.015 25.9886 110.058 26.2012 110.207 26.2149C110.208 26.2258 110.209 26.2369 110.21 26.2478L110.21 26.2507C110.205 26.3186 110.2 26.3865 110.194 26.4544C110.024 26.5326 109.85 26.5685 109.659 26.4537C109.475 26.3427 109.32 26.17 109.288 25.9507C109.235 25.5836 109.355 25.2244 109.475 24.8656C109.567 24.5898 109.66 24.3143 109.673 24.0356C109.386 24.2659 109.033 24.391 108.684 24.5148C108.559 24.5591 108.434 24.6031 108.314 24.6518C108.027 24.7676 107.702 24.9316 107.57 25.2338C107.513 25.3624 107.446 25.5685 107.568 25.6556C107.563 25.6656 107.558 25.6754 107.554 25.6854L107.553 25.6865L107.553 25.6866C107.515 25.7434 107.477 25.8001 107.438 25.8563C107.252 25.838 107.084 25.7812 106.976 25.5853C106.871 25.3958 106.822 25.1677 106.902 24.9618C107.038 24.6167 107.319 24.3663 107.601 24.1163C107.817 23.9242 108.033 23.7323 108.182 23.4978C107.82 23.5523 107.452 23.482 107.089 23.4124C106.959 23.3876 106.829 23.3628 106.701 23.3439C106.394 23.2989 106.032 23.2766 105.769 23.4715C105.656 23.5543 105.496 23.6986 105.559 23.8361C105.549 23.8422 105.541 23.8483 105.532 23.8548L105.516 23.8624L105.516 23.8625C105.46 23.89 105.404 23.9175 105.347 23.9442C105.195 23.8344 105.077 23.7 105.08 23.4753C105.083 23.2583 105.153 23.0359 105.325 22.8984C105.612 22.6681 105.98 22.5939 106.347 22.5197C106.629 22.4626 106.911 22.4057 107.157 22.2778C106.816 22.1421 106.533 21.8952 106.252 21.6509L106.252 21.6509L106.252 21.6509C106.151 21.5636 106.052 21.4766 105.95 21.3952C105.707 21.2014 105.404 20.9988 105.08 21.0341C104.941 21.049 104.731 21.0929 104.718 21.2437L104.709 21.2444C104.701 21.2449 104.693 21.2455 104.685 21.2463L104.682 21.2461C104.615 21.2411 104.548 21.2362 104.481 21.2302C104.404 21.0584 104.368 20.8824 104.482 20.6893C104.591 20.5027 104.762 20.3458 104.979 20.3135C105.342 20.2595 105.697 20.3812 106.051 20.5027C106.324 20.596 106.596 20.6893 106.871 20.7026C106.644 20.413 106.52 20.0558 106.398 19.7022C106.354 19.5758 106.31 19.4499 106.262 19.3277C106.148 19.0371 105.986 18.7084 105.687 18.5746C105.56 18.5177 105.356 18.4494 105.27 18.5732L105.265 18.5705C105.257 18.5666 105.249 18.5626 105.241 18.559L105.205 18.5341L105.205 18.534C105.16 18.5035 105.116 18.4729 105.072 18.4417C105.09 18.2538 105.146 18.0835 105.34 17.9737C105.527 17.8676 105.752 17.818 105.956 17.8997C106.297 18.0365 106.544 18.3214 106.791 18.606C106.981 18.8248 107.171 19.0433 107.403 19.1941C107.349 18.8277 107.419 18.455 107.488 18.0863L107.488 18.0863L107.488 18.0863C107.512 17.9553 107.536 17.8249 107.555 17.6954C107.6 17.3859 107.622 17.0192 107.429 16.7522C107.347 16.6386 107.204 16.4764 107.068 16.5401C107.063 16.5309 107.057 16.5217 107.05 16.5129C107.02 16.4507 106.991 16.3885 106.962 16.3259C107.07 16.1723 107.203 16.0531 107.425 16.056C107.64 16.0588 107.86 16.1299 107.995 16.3036C108.223 16.5947 108.297 16.9668 108.37 17.3383C108.426 17.6238 108.483 17.9089 108.609 18.1568C108.743 17.8127 108.987 17.5257 109.228 17.2417C109.315 17.1402 109.401 17.039 109.481 16.9357C109.673 16.6901 109.873 16.3837 109.838 16.0551C109.823 15.9152 109.78 15.7027 109.631 15.6891L109.629 15.6728L109.628 15.6562L109.628 15.6546C109.633 15.5863 109.638 15.5178 109.644 15.4495C109.814 15.3714 109.988 15.3354 110.179 15.4502C110.363 15.5613 110.518 15.7339 110.55 15.9532C110.604 16.3203 110.483 16.6796 110.363 17.0383L110.363 17.0383C110.271 17.3141 110.179 17.5897 110.166 17.8683C110.452 17.638 110.805 17.5129 111.155 17.389C111.28 17.3448 111.404 17.3008 111.525 17.2522C111.812 17.1363 112.136 16.9723 112.269 16.67C112.325 16.5415 112.392 16.3355 112.27 16.2482L112.284 16.2185L112.287 16.2142L112.287 16.2141L112.287 16.214C112.325 16.1584 112.362 16.1027 112.4 16.0476C112.586 16.0658 112.754 16.1227 112.863 16.3186C112.968 16.5081 113.016 16.7362 112.936 16.9422C112.801 17.2872 112.519 17.5376 112.237 17.7876L112.237 17.7876C112.021 17.9797 111.805 18.1716 111.656 18.4061C112.018 18.3516 112.386 18.4218 112.749 18.4914C112.879 18.5163 113.009 18.541 113.138 18.56C113.444 18.605 113.806 18.6272 114.07 18.4323C114.182 18.3495 114.342 18.2052 114.28 18.0677L114.288 18.0621C114.294 18.0579 114.3 18.0536 114.306 18.0491L114.314 18.0453L114.314 18.0452L114.314 18.0452C114.373 18.0164 114.432 17.9876 114.491 17.9598C114.643 18.0695 114.761 18.2039 114.758 18.4286C114.755 18.6456 114.685 18.868 114.513 19.0055C114.226 19.2359 113.858 19.3101 113.491 19.3843C113.209 19.4413 112.927 19.4983 112.682 19.6261C113.022 19.7617 113.306 20.0086 113.586 20.2528L113.586 20.2529C113.687 20.3402 113.787 20.4272 113.889 20.5087C114.131 20.7025 114.434 20.9051 114.759 20.8698C114.897 20.8549 115.107 20.811 115.121 20.6601C115.132 20.6594 115.143 20.6587 115.153 20.6576L115.165 20.6585ZM108.49 19.8533L108.442 19.9074L108.379 19.8708L107.891 19.5858L107.799 19.532L107.867 19.449C108.258 18.9686 108.824 18.6396 109.466 18.5597L109.567 18.5471V18.65V19.2149V19.2924L109.491 19.3047C109.098 19.3692 108.748 19.5678 108.49 19.8533ZM110.109 19.3162L110.036 19.3016V19.2269V18.6587V18.5529L110.139 18.5687C110.801 18.6698 111.376 19.0369 111.755 19.5583L111.814 19.6403L111.727 19.6912L111.244 19.9734L111.177 20.0128L111.128 19.9509C110.878 19.6296 110.52 19.3991 110.109 19.3162ZM111.397 20.4339L111.419 20.5037C111.471 20.671 111.5 20.8492 111.5 21.0343C111.5 21.2867 111.447 21.5262 111.352 21.7429L111.319 21.8177L111.389 21.8587L111.871 22.1398L111.955 22.1892L111.997 22.0999C112.148 21.7767 112.233 21.4155 112.233 21.0343C112.233 20.7264 112.177 20.4316 112.076 20.1592L112.039 20.0585L111.947 20.1123L111.459 20.3972L111.397 20.4339ZM111.004 22.2611L111.053 22.2108L111.113 22.2461L111.604 22.5327L111.698 22.588L111.627 22.6714C111.21 23.1555 110.611 23.4751 109.937 23.5212L109.841 23.5278V23.4303V22.8693V22.7859L109.923 22.7785C110.346 22.7407 110.724 22.5501 111.004 22.2611ZM108.19 20.3102L108.122 20.2707L107.639 19.9887L107.552 19.9379L107.511 20.0309C107.378 20.3378 107.304 20.6769 107.304 21.0338C107.304 21.3173 107.351 21.5895 107.437 21.8434L107.472 21.948L107.567 21.8927L108.058 21.606L108.119 21.5707L108.1 21.5028C108.059 21.3533 108.037 21.1962 108.037 21.0338C108.037 20.8038 108.081 20.5846 108.16 20.3835L108.19 20.3102ZM108.385 22.0547C108.61 22.365 108.934 22.5967 109.31 22.7022L109.39 22.7246V23.5202L109.258 23.4925C108.626 23.3589 108.082 22.982 107.727 22.4637L107.659 22.3652L107.762 22.3053L108.243 22.0243L108.328 21.9748L108.385 22.0547Z" fill="#291C61"/>
<path d="M132.504 8V7.024H133.832C134.077 7.024 134.269 6.952 134.408 6.808C134.547 6.664 134.616 6.488 134.616 6.28C134.616 6.136 134.584 6.008 134.52 5.896C134.456 5.784 134.365 5.696 134.248 5.632C134.136 5.568 133.997 5.536 133.832 5.536H132.504V4.584H133.728C133.936 4.584 134.104 4.53333 134.232 4.432C134.36 4.32533 134.424 4.16533 134.424 3.952C134.424 3.744 134.36 3.58933 134.232 3.488C134.104 3.38133 133.936 3.328 133.728 3.328H132.504V2.352H133.968C134.331 2.352 134.637 2.41867 134.888 2.552C135.144 2.68533 135.339 2.864 135.472 3.088C135.605 3.312 135.672 3.56 135.672 3.832C135.672 4.17867 135.56 4.472 135.336 4.712C135.112 4.952 134.781 5.11733 134.344 5.208L134.376 4.784C134.851 4.87467 135.216 5.05867 135.472 5.336C135.733 5.61333 135.864 5.95467 135.864 6.36C135.864 6.66933 135.787 6.94933 135.632 7.2C135.483 7.44533 135.264 7.64 134.976 7.784C134.693 7.928 134.352 8 133.952 8H132.504ZM131.544 8V2.352H132.784V8H131.544ZM136.669 8V2.352H137.925V8H136.669ZM137.629 8V6.912H140.725V8H137.629ZM137.629 5.64V4.592H140.445V5.64H137.629ZM137.629 3.432V2.352H140.685V3.432H137.629ZM142.803 8V2.432H144.059V8H142.803ZM141.035 3.448V2.352H145.827V3.448H141.035ZM145.409 8L147.649 2.352H148.785L151.001 8H149.673L147.977 3.312H148.433L146.713 8H145.409ZM146.681 6.976V5.952H149.761V6.976H146.681Z" fill="#F3465F"/>
</svg>
